<svg width="24" height="24" viewBox="0 0 24 24" fill="none" xmlns="http://www.w3.org/2000/svg">
<path d="M9.47188 15.2819C9.28188 15.2819 9.09187 15.2119 8.94187 15.0619C8.12187 14.2419 7.67188 13.1519 7.67188 12.0019C7.67188 9.61187 9.61187 7.67188 12.0019 7.67188C13.1519 7.67188 14.2419 8.12187 15.0619 8.94187C15.2019 9.08187 15.2819 9.27188 15.2819 9.47188C15.2819 9.67188 15.2019 9.86187 15.0619 10.0019L10.0019 15.0619C9.85187 15.2119 9.66188 15.2819 9.47188 15.2819ZM12.0019 9.17188C10.4419 9.17188 9.17188 10.4419 9.17188 12.0019C9.17188 12.5019 9.30187 12.9819 9.54187 13.4019L13.4019 9.54187C12.9819 9.30187 12.5019 9.17188 12.0019 9.17188Z" fill="#222222"/>
<path d="M5.60375 18.5105C5.43375 18.5105 5.25375 18.4505 5.11375 18.3305C4.04375 17.4205 3.08375 16.3005 2.26375 15.0005C1.20375 13.3505 1.20375 10.6605 2.26375 9.00047C4.70375 5.18047 8.25375 2.98047 12.0037 2.98047C14.2037 2.98047 16.3738 3.74047 18.2738 5.17047C18.6038 5.42047 18.6737 5.89047 18.4237 6.22047C18.1737 6.55047 17.7038 6.62047 17.3738 6.37047C15.7338 5.13047 13.8737 4.48047 12.0037 4.48047C8.77375 4.48047 5.68375 6.42047 3.52375 9.81047C2.77375 10.9805 2.77375 13.0205 3.52375 14.1905C4.27375 15.3605 5.13375 16.3705 6.08375 17.1905C6.39375 17.4605 6.43375 17.9305 6.16375 18.2505C6.02375 18.4205 5.81375 18.5105 5.60375 18.5105Z" fill="#222222"/>
<path d="M12.0025 21.0195C10.6725 21.0195 9.3725 20.7495 8.1225 20.2195C7.7425 20.0595 7.5625 19.6195 7.7225 19.2395C7.8825 18.8595 8.3225 18.6795 8.7025 18.8395C9.7625 19.2895 10.8725 19.5195 11.9925 19.5195C15.2225 19.5195 18.3125 17.5795 20.4725 14.1895C21.2225 13.0195 21.2225 10.9795 20.4725 9.80951C20.1625 9.31951 19.8225 8.84951 19.4625 8.40951C19.2025 8.08951 19.2525 7.61951 19.5725 7.34951C19.8925 7.08951 20.3625 7.12951 20.6325 7.45951C21.0225 7.93951 21.4025 8.45951 21.7425 8.99951C22.8025 10.6495 22.8025 13.3395 21.7425 14.9995C19.3025 18.8195 15.7525 21.0195 12.0025 21.0195Z" fill="#222222"/>
<path d="M12.6915 16.2684C12.3415 16.2684 12.0215 16.0184 11.9515 15.6584C11.8715 15.2484 12.1415 14.8584 12.5515 14.7884C13.6515 14.5884 14.5715 13.6684 14.7715 12.5684C14.8515 12.1584 15.2415 11.8984 15.6515 11.9684C16.0615 12.0484 16.3315 12.4384 16.2515 12.8484C15.9315 14.5784 14.5515 15.9484 12.8315 16.2684C12.7815 16.2584 12.7415 16.2684 12.6915 16.2684Z" fill="#222222"/>
<path d="M1.9975 22.7487C1.8075 22.7487 1.6175 22.6788 1.4675 22.5288C1.1775 22.2388 1.1775 21.7587 1.4675 21.4687L8.9375 13.9988C9.2275 13.7088 9.7075 13.7088 9.9975 13.9988C10.2875 14.2887 10.2875 14.7688 9.9975 15.0588L2.5275 22.5288C2.3775 22.6788 2.1875 22.7487 1.9975 22.7487Z" fill="#222222"/>
<path d="M14.5287 10.2214C14.3387 10.2214 14.1488 10.1514 13.9988 10.0014C13.7088 9.71141 13.7088 9.23141 13.9988 8.94141L21.4687 1.47141C21.7587 1.18141 22.2388 1.18141 22.5288 1.47141C22.8188 1.76141 22.8188 2.24141 22.5288 2.53141L15.0588 10.0014C14.9088 10.1514 14.7187 10.2214 14.5287 10.2214Z" fill="#222222"/>
</svg>
